<?xml version="1.0" standalone="no"?>
<!DOCTYPE svg PUBLIC "-//W3C//DTD SVG 20010904//EN"
 "http://www.w3.org/TR/2001/REC-SVG-20010904/DTD/svg10.dtd">
<svg version="1.0" xmlns="http://www.w3.org/2000/svg"
 width="65.000000pt" height="65.000000pt" viewBox="0 0 65.000000 65.000000"
 preserveAspectRatio="xMidYMid meet">

<g transform="translate(0.000000,65.000000) scale(0.100000,-0.100000)"
fill="#000000" stroke="none">
<path d="M106 468 c-13 -18 -16 -54 -16 -185 0 -219 -18 -203 235 -203 254 0
235 -17 235 209 0 141 -3 172 -16 185 -13 14 -47 16 -219 16 -199 0 -204 0
-219 -22z m422 -163 c1 -82 0 -160 -3 -172 -5 -23 -7 -23 -199 -23 -168 0
-195 2 -200 16 -8 22 -8 319 1 328 4 3 95 5 202 4 l196 -3 3 -150z"/>
<path d="M190 375 c0 -18 5 -25 20 -25 15 0 20 7 20 25 0 18 -5 25 -20 25 -15
0 -20 -7 -20 -25z"/>
<path d="M275 380 c-10 -16 17 -21 105 -18 56 2 85 7 88 16 5 15 -183 18 -193
2z"/>
<path d="M192 288 c2 -13 10 -23 18 -23 8 0 16 10 18 23 3 17 -2 22 -18 22
-16 0 -21 -5 -18 -22z"/>
<path d="M280 300 c-27 -18 9 -30 97 -30 74 0 106 10 89 27 -10 11 -171 13
-186 3z"/>
<path d="M194 216 c-8 -22 3 -49 19 -43 6 2 12 14 12 27 0 27 -22 39 -31 16z"/>
<path d="M283 214 c-36 -15 -3 -24 88 -24 76 0 100 3 97 13 -5 12 -159 21
-185 11z"/>
</g>
</svg>
