<?xml version="1.0" standalone="no"?>
<!DOCTYPE svg PUBLIC "-//W3C//DTD SVG 20010904//EN"
 "http://www.w3.org/TR/2001/REC-SVG-20010904/DTD/svg10.dtd">
<svg version="1.0" xmlns="http://www.w3.org/2000/svg"
 width="65.000000pt" height="65.000000pt" viewBox="0 0 65.000000 65.000000"
 preserveAspectRatio="xMidYMid meet">

<g transform="translate(0.000000,65.000000) scale(0.100000,-0.100000)"
fill="#000000" stroke="none">
<path d="M122 504 c-21 -14 -22 -21 -22 -168 0 -110 4 -157 13 -170 12 -16 28
-20 119 -26 4 0 8 -17 10 -37 2 -20 8 -38 14 -40 6 -2 34 15 62 38 51 40 54
41 133 42 108 3 109 3 110 176 2 161 2 161 -18 184 -14 15 -38 17 -207 17
-157 0 -196 -3 -214 -16z m406 -26 c15 -15 17 -261 2 -289 -9 -16 -22 -19 -87
-19 -65 0 -81 -3 -108 -25 -44 -33 -57 -34 -65 -5 -5 21 -12 25 -50 28 -97 5
-90 -7 -90 161 0 81 3 151 7 154 12 13 378 8 391 -5z"/>
<path d="M317 413 c-10 -15 5 -104 17 -100 15 5 14 99 -1 104 -6 2 -13 0 -16
-4z"/>
<path d="M320 261 c0 -12 6 -21 16 -21 9 0 14 7 12 17 -5 25 -28 28 -28 4z"/>
</g>
</svg>
