<?xml version="1.0" standalone="no"?>
<!DOCTYPE svg PUBLIC "-//W3C//DTD SVG 20010904//EN"
 "http://www.w3.org/TR/2001/REC-SVG-20010904/DTD/svg10.dtd">
<svg version="1.0" xmlns="http://www.w3.org/2000/svg"
 width="65.000000pt" height="65.000000pt" viewBox="0 0 65.000000 65.000000"
 preserveAspectRatio="xMidYMid meet">

<g transform="translate(0.000000,65.000000) scale(0.100000,-0.100000)"
fill="#000000" stroke="none">
<path d="M163 478 c-31 -15 -56 -72 -48 -108 7 -30 50 -74 84 -85 29 -9 96 37
110 75 28 83 -64 158 -146 118z m98 -36 c15 -13 22 -30 22 -52 0 -63 -73 -92
-120 -48 -66 62 26 157 98 100z"/>
<path d="M421 434 c-53 -45 -38 -105 36 -143 29 -15 27 -15 68 20 45 39 48 83
9 123 -34 33 -73 34 -113 0z m93 -20 c33 -33 9 -94 -36 -94 -30 0 -58 28 -58
58 0 45 62 69 94 36z"/>
<path d="M91 254 c-32 -13 -51 -52 -51 -103 0 -64 16 -71 173 -71 124 0 139 2
157 20 33 33 20 112 -25 150 -20 16 -216 20 -254 4z m251 -44 c13 -16 18 -35
16 -59 l-3 -36 -140 0 -140 0 -3 40 c-2 29 3 46 17 62 18 19 29 21 127 19 99
-2 108 -3 126 -26z"/>
<path d="M397 258 c-21 -13 47 -30 99 -25 64 7 94 -11 94 -54 l0 -29 -72 0
c-72 0 -110 -11 -94 -27 4 -4 46 -8 92 -8 64 0 87 4 94 15 16 25 11 76 -10
103 -19 23 -28 26 -106 29 -47 2 -91 0 -97 -4z"/>
</g>
</svg>
