<?xml version="1.0" standalone="no"?>
<!DOCTYPE svg PUBLIC "-//W3C//DTD SVG 20010904//EN"
 "http://www.w3.org/TR/2001/REC-SVG-20010904/DTD/svg10.dtd">
<svg version="1.0" xmlns="http://www.w3.org/2000/svg"
 width="65.000000pt" height="65.000000pt" viewBox="0 0 65.000000 65.000000"
 preserveAspectRatio="xMidYMid meet">

<g transform="translate(0.000000,65.000000) scale(0.100000,-0.100000)"
fill="#000000" stroke="none">
<path d="M225 494 c-85 -44 -124 -92 -151 -183 -18 -62 -7 -134 27 -182 l20
-29 203 0 c226 0 219 -2 250 74 45 109 -19 255 -138 315 -53 26 -165 29 -211
5z m201 -33 c111 -50 169 -216 108 -309 -15 -22 -17 -22 -212 -20 l-197 3 -13
28 c-23 49 -26 95 -7 154 21 66 85 137 137 152 55 16 139 12 184 -8z"/>
<path d="M356 353 c-13 -47 -23 -63 -51 -81 -57 -36 -40 -102 26 -102 39 0 58
37 42 81 -10 24 -8 40 8 86 23 67 23 73 5 73 -8 0 -20 -23 -30 -57z m-8 -129
c4 -25 -22 -38 -37 -20 -15 18 -3 48 18 44 9 -2 17 -13 19 -24z"/>
</g>
</svg>
